<svg xmlns="http://www.w3.org/2000/svg" width="96" height="96" viewBox="0 0 96 96">
    <g fill="none" fill-rule="evenodd">
        <g>
            <g>
                <g>
                    <g>
                        <g transform="translate(-846 -1868) translate(0 1694) translate(835 50) translate(11 124)">
                            <circle cx="48" cy="48" r="48" fill="#222"/>
                            <path fill="#EDB927" d="M57.592 51.935l5.582 5.576-.002.003-15.173 15.172L32.825 57.51l5.587-5.571 9.587 9.587 9.593-9.592zM48 42.335l5.66 5.662h-.002l.006.003L48 53.664 42.336 48 48 42.336zm19.106.088l5.58 5.579-5.58 5.579-5.578-5.579 5.578-5.579zm-38.213-.002l5.579 5.578-5.579 5.58-5.579-5.58 5.58-5.578zM48 23.314l15.173 15.173-5.58 5.579L48 34.473l-9.587 9.588-5.579-5.58L48 23.315z"/>
                        </g>
                    </g>
                </g>
            </g>
        </g>
    </g>
</svg>
